<svg xmlns="http://www.w3.org/2000/svg" viewBox="0 0 200 200">
  <!-- open book -->
  <g stroke="#111827" stroke-width="7" stroke-linejoin="round" stroke-linecap="round">
    <path d="M100 60 C76 46 46 44 26 52 V158 C46 150 76 152 100 166 Z" fill="#f38d33"/>
    <path d="M100 60 C124 46 154 44 174 52 V158 C154 150 124 152 100 166 Z" fill="#fbb768"/>
    <line x1="100" y1="60" x2="100" y2="166" stroke="#111827" stroke-width="7"/>
    <line x1="116" y1="76" x2="156" y2="68" stroke="#111827" stroke-width="5"/>
    <line x1="116" y1="94" x2="156" y2="86" stroke="#111827" stroke-width="5"/>
    <line x1="116" y1="112" x2="146" y2="106" stroke="#111827" stroke-width="5"/>
  </g>
  <!-- bookmark -->
  <path d="M132 34 v40 l-12 -9 -12 9 v-40 z" fill="#263959" stroke="#111827" stroke-width="7" stroke-linejoin="round"/>
  <!-- sparkle accent -->
  <path d="M40 32 l6 14 14 6 -14 6 -6 14 -6 -14 -14 -6 14 -6 z" fill="#263959" stroke="#111827" stroke-width="4" stroke-linejoin="round"/>
</svg>
